<svg fill="#ffffff" width="284" height="284" viewBox="0 0 284 284" xmlns="http://www.w3.org/2000/svg">
<g clip-path="url(#clip0_46_455)">
<path d="M88.8944 181.205C77.4364 169.305 77.7974 150.301 89.6984 138.842C101.675 127.312 120.641 127.787 132.059 139.647L132.326 139.924L124.82 76.223C122.887 59.816 134.662 44.895 151.064 42.963C152.018 42.85 152.983 42.795 153.943 42.774L155.143 28.677C155.844 20.445 149.738 13.203 141.506 12.502C133.279 11.801 126.032 17.907 125.331 26.139L121.142 75.348C120.882 78.398 116.32 78.21 116.32 75.143V14.96C116.32 6.698 109.622 0 101.36 0C93.0984 0 86.4004 6.698 86.4004 14.96V74.194C86.4004 76.69 82.7054 76.911 82.4124 74.428L76.7454 26.34C75.7784 18.135 68.3424 12.264 60.1374 13.233C51.9314 14.2 46.0644 21.636 47.0304 29.842L58.7114 128.976C59.0464 131.819 55.5624 133.465 53.5784 131.404L28.5664 105.425C22.8364 99.474 13.3664 99.293 7.41441 105.024C1.46241 110.754 1.28241 120.224 7.01341 126.176C73.6624 195.402 75.5384 195.386 77.2384 196.465C72.9384 197.275 69.6844 201.045 69.6844 205.58V229.814C69.6844 234.94 73.8404 239.096 78.9664 239.096H144.63C138.999 233.247 94.9154 187.458 88.8944 181.205Z"/>
<path d="M264.36 185.063L280.615 105.442C282.118 98.077 277.367 90.888 270.001 89.384C262.641 87.889 255.447 92.634 253.943 99.998L247.463 131.74C246.88 134.594 242.67 133.941 242.914 131.084L247.833 73.302C248.534 65.07 242.428 57.828 234.196 57.127C225.966 56.426 218.722 62.533 218.021 70.764L213.832 119.973C213.569 123.055 209.01 122.835 209.01 119.768V59.586C209.01 51.324 202.312 44.626 194.05 44.626C185.788 44.626 179.09 51.324 179.09 59.586V118.82C179.09 121.32 175.397 121.558 175.102 119.054L169.436 70.966C168.469 62.763 161.034 56.89 152.827 57.859C144.622 58.826 138.754 66.262 139.721 74.468L151.402 173.602C151.739 176.463 148.24 178.077 146.269 176.03L121.257 150.051C115.528 144.101 106.058 143.918 100.105 149.649C94.1528 155.38 93.9728 164.85 99.7038 170.801C99.7038 170.801 168.228 240.011 169.928 241.09C165.629 241.901 162.375 245.67 162.375 250.205V274.439C162.375 279.565 166.531 283.721 171.657 283.721H259.846C264.972 283.721 269.128 279.565 269.128 274.439V250.205C269.128 245.644 265.836 241.86 261.5 241.078C263.293 238.611 264.363 235.585 264.363 232.302V185.063H264.36ZM245.656 272.309C239.949 272.309 235.323 267.683 235.323 261.976C235.323 256.269 239.949 251.643 245.656 251.643C251.363 251.643 255.989 256.269 255.989 261.976C255.989 267.683 251.362 272.309 245.656 272.309Z"/>
</g>
<defs>
<clipPath id="clip0_46_455">
<rect width="283.721" height="283.721"/>
</clipPath>
</defs>
</svg>
