<svg width="24" height="24" viewBox="0 0 24 24" fill="none" xmlns="http://www.w3.org/2000/svg">
<g clip-path="url(#clip0_255_936)">
<path d="M17.4015 3.6H15.6015V1.8C15.6004 0.806396 14.7953 0.00109863 13.8015 0H10.2015C9.20789 0.00109863 8.40259 0.806396 8.40149 1.8V3.6H6.60149C4.94541 3.60176 3.60332 4.94385 3.60156 6.59993V10.1999C3.60266 11.1937 4.40796 11.9988 5.40156 11.9999H8.40149V11.4001C8.40149 11.0687 8.67022 10.8 9.00156 10.8C9.33291 10.8 9.60164 11.0687 9.60164 11.4001V11.9999H14.4016V11.4001C14.4016 11.0687 14.6703 10.8 15.0016 10.8C15.333 10.8 15.6015 11.0687 15.6015 11.4001V11.9999H18.6016C19.5952 11.9988 20.4005 11.1937 20.4016 10.1999V6.59993C20.3999 4.94385 19.0578 3.60176 17.4015 3.6ZM14.4016 3.6H9.60164V1.8C9.60208 1.46887 9.87036 1.20037 10.2015 1.19993H13.8015C14.1328 1.20037 14.4011 1.46887 14.4016 1.8V3.6Z" fill="white"/>
<path d="M22.1982 14.4H21.5981V21C21.592 21.1828 21.5735 21.3647 21.543 21.5449C22.9637 21.2823 23.9953 20.0446 23.9982 18.6001V16.2C23.9971 15.2064 23.1918 14.4011 22.1982 14.4Z" fill="white"/>
<path d="M2.40007 14.4H1.8C0.806397 14.4011 0.00109863 15.2064 0 16.2V18.6001C0.00263672 20.0446 1.03447 21.2823 2.455 21.5449C2.42468 21.3647 2.40623 21.1828 2.40007 21V14.4Z" fill="white"/>
<path d="M15.6015 13.2001V15.0001C15.6015 15.3314 15.333 15.5999 15.0016 15.5999C14.6703 15.5999 14.4016 15.3314 14.4016 15.0001V13.2001H9.60164V15.0001C9.60164 15.3314 9.33291 15.5999 9.00156 15.5999C8.67022 15.5999 8.40149 15.3314 8.40149 15.0001V13.2001H5.40156C4.75029 13.1979 4.11792 12.9817 3.60156 12.5848V20.9999C3.60332 22.6562 4.94541 23.9983 6.60149 24.0001H17.4015C19.0578 23.9983 20.3999 22.6562 20.4016 20.9999V12.5848C19.8853 12.9817 19.2527 13.1979 18.6016 13.2001H15.6015Z" fill="white"/>
</g>
<defs>
<clipPath id="clip0_255_936">
<rect width="24" height="24" fill="white"/>
</clipPath>
</defs>
</svg>
