<?xml version="1.0" standalone="no"?>
<!DOCTYPE svg PUBLIC "-//W3C//DTD SVG 20010904//EN"
 "http://www.w3.org/TR/2001/REC-SVG-20010904/DTD/svg10.dtd">
<svg version="1.0" xmlns="http://www.w3.org/2000/svg"
 width="512.000000pt" height="512.000000pt" viewBox="0 0 512.000000 512.000000"
 preserveAspectRatio="xMidYMid meet">

<g transform="translate(0.000000,512.000000) scale(0.100000,-0.100000)"
fill="#ffffff" stroke="none">
<path d="M2223 3513 l-63 -4 0 -321 0 -321 98 6 c53 4 125 7 160 7 l62 0 0
320 0 320 -97 -2 c-54 -1 -126 -3 -160 -5z"/>
<path d="M2640 3200 l0 -320 63 0 c34 0 106 -3 160 -7 l97 -6 0 320 0 320 -92
7 c-50 3 -122 6 -160 6 l-68 0 0 -320z"/>
<path d="M1845 3489 c-728 -68 -1325 -243 -1484 -436 -60 -73 -53 -133 24
-208 63 -60 133 -103 257 -157 105 -45 84 -46 303 11 270 71 622 127 978 156
l77 7 0 319 0 319 -32 -1 c-18 -1 -73 -5 -123 -10z"/>
<path d="M3120 3180 c0 -304 1 -320 18 -320 51 0 357 -33 510 -55 208 -30 404
-70 588 -121 155 -42 142 -43 290 26 150 69 255 156 269 222 12 52 -5 90 -65
149 -155 151 -589 294 -1120 368 -138 19 -431 51 -471 51 -18 0 -19 -15 -19
-320z"/>
<path d="M320 2410 c0 -252 1 -274 20 -310 72 -140 446 -299 920 -389 94 -18
384 -61 410 -61 6 0 10 111 10 319 l0 318 -132 17 c-493 65 -932 190 -1149
328 -30 19 -60 38 -66 42 -10 6 -13 -50 -13 -264z"/>
<path d="M4740 2643 c-226 -146 -664 -273 -1167 -339 l-133 -18 0 -318 c0
-271 2 -318 15 -318 74 0 529 81 675 121 343 93 594 220 650 329 19 38 20 55
18 309 l-3 270 -55 -36z"/>
<path d="M1840 1953 l0 -320 78 -7 c381 -33 923 -33 1290 0 l72 6 0 320 0 321
-67 -7 c-346 -33 -937 -33 -1300 0 l-73 7 0 -320z"/>
</g>
</svg>
