<svg width="23" height="24" viewBox="0 0 23 24" fill="none" xmlns="http://www.w3.org/2000/svg">
<path fill-rule="evenodd" clip-rule="evenodd" d="M4.43348 0.74925C2.91333 1.15931 1.58775 1.53164 1.48777 1.57673C1.21509 1.69973 0.909469 2.03602 0.795094 2.33897C0.717609 2.54423 0.700406 2.67319 0.716438 2.92969C0.740344 3.31228 0.794109 3.42848 1.20042 3.97612C1.68956 4.63542 2.00217 5.34956 2.18892 6.23438C2.29861 6.75408 2.29969 7.89042 2.19098 8.37155C1.93444 9.50662 1.38384 10.3741 0.548297 10.9596C-0.00295305 11.3459 0.00435937 11.3201 0.00309375 12.8767L0.00206253 14.1518L1.67784 14.1658L3.35362 14.1797L3.62147 14.3112C3.77091 14.3846 3.97144 14.536 4.07498 14.6537C4.42603 15.0525 4.40831 14.7869 4.40831 19.649V24H11.2052H18.0021V19.649C18.0021 14.7578 17.9815 15.0488 18.3566 14.6317C18.4786 14.4959 18.6621 14.358 18.8093 14.2915C19.0531 14.1813 19.0813 14.1795 20.7352 14.1658L22.4136 14.1518L22.3992 12.798C22.3827 11.2387 22.4126 11.3466 21.8889 10.9542C21.318 10.5263 20.9781 10.1243 20.6728 9.51562C20.2978 8.76811 20.1405 8.06077 20.1411 7.125C20.1415 6.37294 20.2202 5.94764 20.4868 5.25647C20.6428 4.85194 21.0327 4.19911 21.3313 3.84244C21.6143 3.50442 21.7232 3.22462 21.7232 2.83594C21.7232 2.30494 21.4302 1.81195 20.9873 1.59825C20.8794 1.54617 19.8103 1.24078 18.6114 0.919641C15.2919 0.0304219 15.1724 0 14.9944 0C14.767 0 14.545 0.162 14.3678 0.457172C13.9608 1.13522 13.48 1.59019 12.8224 1.91958C11.8199 2.4217 10.599 2.4337 9.588 1.95131C8.95533 1.64944 8.36836 1.10203 8.0122 0.481734C7.93486 0.347063 7.81134 0.193969 7.7377 0.141516C7.45509 -0.0597188 7.38483 -0.0467812 4.43348 0.74925ZM6.23569 14.2431C5.72095 14.5166 5.73413 15.241 6.25809 15.4728C6.45928 15.5618 6.59306 15.5639 11.2842 15.5516L16.1036 15.5391L16.2567 15.4299C16.6842 15.125 16.6403 14.4905 16.1747 14.2431C16.0188 14.1602 15.7929 14.1562 11.2052 14.1562C6.61748 14.1562 6.39159 14.1602 6.23569 14.2431ZM0.0127501 19.5435C0.0254063 23.4994 0.0261094 23.5253 0.123562 23.6567C0.177516 23.7295 0.291375 23.8365 0.376594 23.8945C0.527813 23.9974 0.562078 24 1.79025 24H3.04894V19.7812V15.5625H1.52447H0L0.0127501 19.5435ZM19.3614 19.7812V24H20.6201C21.8483 24 21.8826 23.9974 22.0338 23.8945C22.119 23.8365 22.2329 23.7295 22.2868 23.6567C22.3843 23.5253 22.385 23.4994 22.3976 19.5435L22.4104 15.5625H20.8859H19.3614V19.7812ZM6.35363 17.0027C6.06563 17.0761 5.86134 17.3579 5.86162 17.6813C5.86186 17.9577 6.00272 18.1723 6.25809 18.2853C6.45928 18.3743 6.59306 18.3764 11.2842 18.3641L16.1036 18.3516L16.2567 18.2424C16.4524 18.1028 16.5489 17.9144 16.5489 17.6719C16.5489 17.4294 16.4524 17.241 16.2567 17.1014L16.1036 16.9922L11.2755 16.9855C8.62003 16.9818 6.40519 16.9895 6.35363 17.0027ZM6.35363 19.8152C6.06563 19.8886 5.86134 20.1704 5.86162 20.4938C5.86186 20.7702 6.00272 20.9848 6.25809 21.0978C6.45928 21.1868 6.59306 21.1889 11.2842 21.1766L16.1036 21.1641L16.2567 21.0549C16.4524 20.9153 16.5489 20.7269 16.5489 20.4844C16.5489 20.2419 16.4524 20.0535 16.2567 19.9139L16.1036 19.8047L11.2755 19.798C8.62003 19.7943 6.40519 19.802 6.35363 19.8152Z" fill="white"/>
</svg>
