<?xml version="1.0" standalone="no"?>
<!DOCTYPE svg PUBLIC "-//W3C//DTD SVG 20010904//EN"
        "http://www.w3.org/TR/2001/REC-SVG-20010904/DTD/svg10.dtd">
<svg version="1.0" xmlns="http://www.w3.org/2000/svg"
     width="64.000000pt" height="64.000000pt" viewBox="0 0 64.000000 64.000000"
     preserveAspectRatio="xMidYMid meet">

    <g transform="translate(0.000000,64.000000) scale(0.100000,-0.100000)"
       fill="#ffffff" stroke="none">
        <path d="M218 502 c-68 -42 -108 -73 -108 -84 0 -25 204 -152 232 -144 37 9
213 130 213 146 0 13 -199 149 -220 149 -5 0 -58 -30 -117 -67z"/>
        <path d="M110 331 c0 -14 31 -39 103 -85 57 -36 110 -66 118 -66 18 0 201 113
219 135 9 11 10 19 2 27 -7 7 -31 -3 -81 -35 -84 -55 -125 -77 -143 -77 -8 0
-56 27 -108 60 -52 33 -98 60 -102 60 -5 0 -8 -9 -8 -19z"/>
        <path d="M110 242 c0 -15 28 -38 103 -86 57 -36 110 -66 118 -66 18 0 201 113
219 135 9 11 10 19 2 27 -7 7 -31 -3 -81 -35 -141 -92 -132 -91 -254 -15 -100
63 -107 65 -107 40z"/>
    </g>
</svg>
