<?xml version="1.0" standalone="no"?>
<!DOCTYPE svg PUBLIC "-//W3C//DTD SVG 20010904//EN"
 "http://www.w3.org/TR/2001/REC-SVG-20010904/DTD/svg10.dtd">
<svg version="1.0" xmlns="http://www.w3.org/2000/svg"
 width="512.000000pt" height="512.000000pt" viewBox="0 0 512.000000 512.000000"
 preserveAspectRatio="xMidYMid meet">

<g transform="translate(0.000000,512.000000) scale(0.100000,-0.100000)"
fill="#ffffff" stroke="none">
<path d="M2355 4839 c-733 -100 -1305 -686 -1384 -1417 -15 -141 -15 -2100 0
-2208 62 -445 417 -807 864 -879 114 -19 216 -19 330 0 461 75 808 439 868
911 16 122 14 119 286 447 498 600 711 945 809 1305 23 88 26 114 26 277 -1
147 -5 199 -23 285 -137 647 -613 1124 -1256 1260 -116 24 -404 35 -520 19z
m435 -709 c415 -107 717 -482 721 -895 1 -75 -2 -91 -23 -121 -26 -38 -90 -74
-133 -74 -39 0 -106 34 -129 66 -11 16 -22 57 -28 103 -16 124 -36 202 -73
276 -151 306 -525 441 -816 295 -164 -83 -288 -227 -350 -409 -28 -80 -26 -85
30 -100 246 -63 466 -289 543 -558 32 -111 32 -305 0 -416 -98 -342 -407 -587
-743 -587 -62 0 -82 4 -109 22 -72 50 -95 116 -65 194 25 66 71 93 176 104
107 11 185 40 262 98 256 196 243 599 -25 774 -74 49 -128 68 -227 80 -97 11
-127 24 -164 68 -36 42 -42 88 -29 208 25 225 125 433 291 606 147 151 313
244 506 282 99 19 278 12 385 -16z"/>
</g>
</svg>
