<svg width="24" height="8" viewBox="0 0 24 8" fill="none" xmlns="http://www.w3.org/2000/svg">
<path fill-rule="evenodd" clip-rule="evenodd" d="M2.25051 0.0433994C1.59267 0.078124 1.36922 0.12655 0.965436 0.321916C0.642514 0.478109 0.169779 0.909673 0.06942 1.13985C0.018045 1.25773 0.000513708 1.49078 0.000513708 2.05693C0.000513708 2.95676 -0.0440176 2.86867 0.696139 3.43289L1.20183 3.81832L1.33415 4.81689C1.4069 5.36606 1.49583 5.92475 1.53169 6.05835C1.70076 6.68802 2.24517 7.34505 2.84873 7.64791C3.49101 7.97018 3.50578 7.97184 5.64895 7.96991L7.57083 7.96816L7.98365 7.84584C8.68847 7.63699 9.23503 7.32146 9.68245 6.86528C10.251 6.28552 10.5004 5.77974 10.719 4.76294C10.8067 4.3555 10.9009 4.00879 10.9285 3.99244C11.0785 3.90363 12.2671 3.90219 12.4117 3.99064C12.4368 4.00596 12.5246 4.33115 12.6069 4.71325C12.6892 5.09531 12.8153 5.55298 12.8872 5.73029C13.2022 6.50793 13.8795 7.20606 14.6833 7.58165C15.4948 7.96088 15.5795 7.97166 17.7427 7.97166C19.4291 7.97166 19.6457 7.96335 19.8965 7.88923C20.7674 7.63165 21.4655 7.00764 21.7497 6.2326C21.8205 6.03975 22.1255 4.13264 22.1255 3.88323C22.1255 3.85682 22.3799 3.63706 22.6908 3.39484C23.009 3.14701 23.277 2.90227 23.3037 2.83511C23.3315 2.7654 23.345 2.39834 23.3361 1.95213L23.3208 1.18846L23.1725 0.983749C22.857 0.548546 22.3513 0.233644 21.7562 0.101888C21.2779 -0.00403798 15.2989 -0.041323 14.7017 0.0578645C13.9662 0.180052 13.2462 0.597601 12.8354 1.14026L12.7018 1.31667L11.668 1.31994L10.6343 1.32322L10.5428 1.18132C10.3635 0.903249 9.84225 0.487093 9.4439 0.303902C8.80448 0.0098882 8.68125 0.000409401 5.57864 0.00683323C4.07044 0.00993284 2.57278 0.026374 2.25051 0.0433994Z" fill="white"/>
</svg>
