<svg width="24" height="17" viewBox="0 0 24 17" fill="none" xmlns="http://www.w3.org/2000/svg">
<path fill-rule="evenodd" clip-rule="evenodd" d="M8.91295 0.0449841C7.32024 0.198406 5.68341 0.60064 4.44539 1.1428C3.42698 1.58881 2.66995 2.09206 2.03958 2.74222C0.235547 4.60273 -0.34725 7.19178 0.194297 10.9394C0.310641 11.7444 0.504703 12.6312 0.594562 12.7683C0.711797 12.9472 0.862781 12.9785 1.60828 12.9785H2.31764L2.64905 12.7506C2.8313 12.6253 3.22298 12.3911 3.51947 12.2301C3.81595 12.0692 4.06523 11.9313 4.07344 11.9236C4.08164 11.9159 4.0013 11.6386 3.89489 11.3073C2.85408 8.06741 2.78053 5.5955 3.67195 3.81444C4.02802 3.10302 4.69552 2.35564 5.38102 1.901C6.06216 1.44922 7.34803 0.929234 7.61714 0.996781C7.83877 1.05237 7.97259 1.22764 7.97259 1.46225C7.97259 1.78147 7.86684 1.87634 7.2885 2.07612C6.35049 2.40017 5.77683 2.75103 5.22328 3.33927C4.68483 3.91142 4.42219 4.39344 4.22161 5.1777C3.91013 6.39561 3.9915 7.86416 4.47628 9.77417C4.587 10.2103 4.96369 11.4351 4.99852 11.4722C5.00738 11.4816 5.28464 11.3724 5.61469 11.2295C9.44963 9.56975 14.8486 7.97019 17.784 7.6242C18.2201 7.57278 18.2426 7.56477 18.2185 7.46886C18.2046 7.41322 17.8757 6.33819 17.4877 5.07988C16.9889 3.46231 16.7265 2.68498 16.5923 2.4268C16.2605 1.78916 15.6243 1.19455 14.9436 0.885922C14.1709 0.535531 12.9234 0.2 11.896 0.0661718C11.2984 -0.0116408 9.62456 -0.0235472 8.91295 0.0449841ZM18.496 8.53386C15.8219 8.76444 11.3593 9.99247 7.19616 11.6435C5.68223 12.2438 3.73195 13.1525 3.64083 13.2999C3.59414 13.3754 4.69214 14.385 5.41791 14.9338C6.6465 15.8629 7.81036 16.4659 8.99035 16.7848C9.52238 16.9286 9.57773 16.9342 10.4804 16.9368C11.5187 16.9397 11.7495 16.9049 12.6835 16.6043C13.2898 16.4092 14.4028 15.8833 15.0976 15.4635C15.3683 15.3 16.1556 14.7888 16.847 14.3275C19.1937 12.7621 20.1898 12.2526 21.2738 12.0636C21.8833 11.9574 22.1397 11.9698 22.3111 12.1141C22.4909 12.2653 22.5401 12.4912 22.4369 12.6908C22.3386 12.8809 22.1415 12.9785 21.8559 12.9785C21.4027 12.9785 20.7446 13.1883 19.9492 13.5863C19.5367 13.7927 19.1486 14.0012 19.0869 14.0496L18.9746 14.1376L19.3823 14.4829C20.1822 15.1605 20.816 15.5911 21.3788 15.8394C21.744 16.0005 22.3344 16.0015 22.66 15.8415C23.3709 15.4922 23.9328 14.5398 23.9913 13.5848C24.0367 12.8432 23.8034 12.0714 23.3928 11.6049C23.2103 11.3976 22.8162 11.1215 19.9023 9.16011L18.9179 8.49749L18.496 8.53386Z" fill="white"/>
</svg>
