<svg width="24" height="24" viewBox="0 0 24 24" fill="none" xmlns="http://www.w3.org/2000/svg">
<path fill-rule="evenodd" clip-rule="evenodd" d="M8.60522 1.64423C8.48705 1.78467 8.48386 1.806 8.48386 2.45897V3.12952L8.87058 3.29409C9.83855 3.70617 10.6123 3.96112 11.1792 4.05487C12.3446 4.24758 13.3721 4.05014 15.127 3.2962L15.5151 3.12952V2.45897C15.5151 1.806 15.5119 1.78467 15.3938 1.64423C15.3121 1.54716 15.23 1.5 15.1427 1.5C15.0713 1.5 14.7007 1.61723 14.319 1.76048C13.2204 2.1728 12.9633 2.22422 11.9995 2.22422C11.0356 2.22422 10.7785 2.1728 9.68002 1.76048C9.29831 1.61723 8.92763 1.5 8.85628 1.5C8.769 1.5 8.68688 1.54716 8.60522 1.64423ZM6.58345 4.72495C5.52534 5.15555 4.5397 5.57625 4.39317 5.65992C4.05759 5.8515 3.52003 6.35592 3.25369 6.72914C3.03783 7.03172 2.80289 7.47591 2.68824 7.79836C2.62922 7.96434 1.50159 19.3555 1.5 19.802C1.4993 19.9909 1.88686 20.36 2.32917 20.5915C2.80575 20.8411 3.28359 20.9531 3.87155 20.9531C4.65703 20.9531 4.48913 21.5761 5.23575 15.8906C5.58614 13.2223 5.88769 11.0221 5.90588 11.0014C5.92402 10.9807 5.97802 11.2233 6.02583 11.5405C6.10458 12.0628 6.11517 12.559 6.13814 16.8047C6.15211 19.3828 6.17977 21.5243 6.19959 21.5635C6.258 21.6789 6.38503 21.7373 6.84966 21.8619C8.13755 22.2073 10.2032 22.5 11.3526 22.5H11.6245V13.6708V4.84158L11.3038 4.81177C10.7332 4.75875 9.85842 4.48884 8.57761 3.97059C8.53889 3.95489 7.6433 4.2937 6.58345 4.72495ZM14.6479 4.27097C13.7616 4.60641 13.1799 4.76648 12.6765 4.8135L12.3745 4.84167V13.6709V22.5H12.6464C14.2136 22.5 17.4228 21.9473 17.7255 21.6251L17.8354 21.5081L17.8608 16.8127C17.8838 12.5629 17.8944 12.0626 17.973 11.5418C18.0207 11.2254 18.0725 10.9792 18.0882 10.9947C18.1039 11.0101 18.4052 13.2095 18.7579 15.882L19.3991 20.7413L19.5289 20.853C19.655 20.9615 19.6768 20.964 20.2706 20.9407C20.9362 20.9145 21.1811 20.8514 21.7155 20.5685C22.1093 20.3601 22.4995 19.9824 22.4995 19.8097C22.4995 19.7381 22.2463 17.0498 21.9368 13.8359C21.492 9.21731 21.3543 7.9328 21.2799 7.70897C20.9746 6.78994 20.0505 5.79961 19.1479 5.42409C18.7702 5.26692 15.9684 4.13578 15.7026 4.03312L15.4917 3.95166L14.6479 4.27097ZM8.88066 16.92C8.8282 16.941 8.75869 16.9903 8.7262 17.0295C8.69372 17.0686 8.48845 17.6352 8.27006 18.2886C7.98872 19.1303 7.88109 19.5141 7.90088 19.6054C7.95455 19.8531 8.28047 19.9594 8.47622 19.793C8.59477 19.6922 9.39413 17.292 9.35269 17.1614C9.29358 16.9752 9.05166 16.8515 8.88066 16.92ZM14.8603 16.9353C14.7966 16.9673 14.7128 17.05 14.6741 17.1189C14.6073 17.238 14.6247 17.3076 15.0151 18.4885C15.4462 19.7923 15.49 19.875 15.7495 19.875C15.9113 19.875 16.0603 19.763 16.0979 19.6132C16.136 19.4612 15.3667 17.1112 15.2435 17.0031C15.1201 16.8949 14.9873 16.8714 14.8603 16.9353Z" fill="white"/>
</svg>
