<svg width="24" height="24" viewBox="0 0 24 24" fill="none" xmlns="http://www.w3.org/2000/svg">
<path fill-rule="evenodd" clip-rule="evenodd" d="M11.0625 0.42776C8.53125 0.632135 6.22842 1.79449 4.77464 3.60162L4.4925 3.95238L5.26875 4.73009C5.91141 5.37392 6.05813 5.54632 6.12108 5.73157C6.22655 6.04203 6.1837 6.18781 5.98739 6.18645C5.67244 6.18429 5.43488 6.01662 4.67747 5.26188C4.27233 4.85815 3.93136 4.53743 3.91973 4.5491C3.85903 4.61009 3.54277 5.21103 3.37177 5.59029C2.69541 7.09034 2.25 9.32159 2.25 11.2099V11.625L3.10547 11.626C4.02591 11.6271 4.21856 11.6674 4.42772 11.9023C4.54397 12.033 4.49334 12.1284 4.23895 12.2578C4.07723 12.3401 3.9442 12.3533 3.15234 12.366L2.25 12.3806V12.6097C2.25 12.9254 2.37562 13.8556 2.48377 14.3405C2.70853 15.3485 3.1268 16.5808 3.56681 17.5312C3.75684 17.9418 4.24664 18.8868 4.29417 18.9346C4.30542 18.946 4.66744 18.6052 5.09873 18.1774C5.80781 17.474 5.90681 17.3926 6.13392 17.3259C6.43523 17.2373 6.56302 17.2817 6.56147 17.4743C6.55913 17.7651 6.37664 18.0177 5.62181 18.7751L4.87275 19.5267L5.28403 20.0404C6.99436 22.1765 9.04036 23.3917 11.2852 23.6048L11.625 23.6371L11.626 22.7756C11.6271 21.8524 11.6674 21.6563 11.8979 21.4513C12.0363 21.3282 12.1264 21.382 12.2591 21.6672C12.368 21.9009 12.3741 21.96 12.3745 22.775L12.375 23.636L12.7383 23.6035C14.9794 23.4028 17.0897 22.1269 18.8203 19.9262L19.1302 19.5321L18.3602 18.7543C17.6892 18.0765 17.5799 17.945 17.5104 17.7314C17.3751 17.3157 17.4695 17.2093 17.8695 17.3269C18.0923 17.3923 18.1961 17.4779 18.9041 18.1802C19.5364 18.8074 19.7 18.947 19.7368 18.8906C19.9384 18.5812 20.4338 17.629 20.6636 17.1094C21.2872 15.6987 21.6588 14.2962 21.7331 13.0727L21.7641 12.5625L20.9016 12.562C20.0926 12.5616 20.0242 12.5547 19.8001 12.4503C19.5239 12.3217 19.4609 12.2154 19.5809 12.0803C19.7806 11.8556 19.9824 11.8146 20.8945 11.8135L21.75 11.8125V11.3297C21.75 10.3633 21.579 8.79706 21.3704 7.85154C21.2234 7.18554 20.9778 6.39556 20.7452 5.84056C20.5175 5.29713 20.1266 4.54685 20.0712 4.54685C20.0529 4.54685 19.7218 4.86546 19.3353 5.2549C18.8398 5.75435 18.5638 5.99595 18.3984 6.07479C17.9908 6.26923 17.7721 6.19971 17.8374 5.89643C17.9009 5.60196 18.0133 5.45693 18.7626 4.70243L19.5159 3.94395L19.248 3.61643C18.8523 3.13278 18.0808 2.41062 17.5763 2.05165C17.3324 1.87812 16.8375 1.58792 16.4766 1.40674C15.2895 0.810963 14.1747 0.521885 12.6211 0.406948L12.375 0.38876L12.3745 1.23734C12.3741 2.03417 12.3672 2.10064 12.2616 2.32751C12.1521 2.56263 12.013 2.66754 11.9018 2.59882C11.8732 2.5811 11.7994 2.45848 11.7378 2.32624C11.6328 2.10068 11.6259 2.03332 11.6255 1.23045C11.6252 0.759916 11.6092 0.377932 11.5898 0.381494C11.5705 0.385104 11.3332 0.405916 11.0625 0.42776ZM7.38281 7.56574C6.4995 7.73749 5.89359 8.10045 5.59931 8.63417C5.41889 8.96145 5.40867 9.38431 5.57344 9.7031C5.81302 10.1666 6.41953 10.5746 7.14844 10.7626C7.58963 10.8764 8.52024 10.8776 8.97525 10.7649C9.40467 10.6586 9.91256 10.4109 10.175 10.1799C10.8293 9.60396 10.8293 8.77099 10.175 8.19504C9.91594 7.96699 9.40495 7.71617 8.9993 7.61792C8.568 7.51343 7.78233 7.48807 7.38281 7.56574ZM15.2578 7.56574C14.3745 7.73749 13.7686 8.10045 13.4743 8.63417C13.2939 8.96145 13.2837 9.38431 13.4484 9.7031C13.688 10.1666 14.2945 10.5746 15.0234 10.7626C15.4646 10.8764 16.3952 10.8776 16.8503 10.7649C17.2797 10.6586 17.7876 10.4109 18.05 10.1799C18.7043 9.60396 18.7043 8.77099 18.05 8.19504C17.7909 7.96699 17.28 7.71617 16.8743 7.61792C16.443 7.51343 15.6573 7.48807 15.2578 7.56574ZM9.83559 12.2461C9.73842 12.3241 9.54549 13.3149 9.58856 13.5148C9.6645 13.8676 9.8213 14.0468 10.2407 14.26C11.104 14.699 12.8394 14.7058 13.7525 14.2739C14.1087 14.1054 14.3128 13.895 14.391 13.6159C14.4473 13.4145 14.4429 13.3348 14.348 12.848C14.2364 12.2751 14.198 12.1875 14.0584 12.1875C13.8906 12.1875 13.8695 12.3377 13.9691 12.8218C14.0834 13.3776 14.0847 13.4713 13.9805 13.6479C13.7232 14.0837 12.3454 14.3573 11.2936 14.1814C10.4816 14.0456 10.0302 13.8152 9.96122 13.5012C9.94448 13.4252 9.97678 13.1381 10.0346 12.8477C10.1183 12.4274 10.1267 12.3163 10.0788 12.2586C10.0071 12.1722 9.93244 12.1683 9.83559 12.2461ZM11.225 16.9428C9.9607 17.1393 9.08344 17.8226 9.21108 18.5113C9.33361 19.1727 10.2346 19.6975 11.4867 19.8367C12.8933 19.9931 14.3789 19.4838 14.7248 18.7265C15.2277 17.6256 13.2655 16.6256 11.225 16.9428Z" fill="white"/>
</svg>
