<svg width="21" height="24" viewBox="0 0 21 24" fill="none" xmlns="http://www.w3.org/2000/svg">
<path fill-rule="evenodd" clip-rule="evenodd" d="M11.8594 9.60938C12.2812 9.5625 12.7031 9.46875 13.125 9.32812C13.125 9.23438 13.0781 9.09375 13.0781 8.95312C13.0781 7.92188 13.9219 7.07812 14.9531 7.07812C15.5156 7.07812 15.9844 7.3125 16.3125 7.6875C16.6875 7.40625 16.9688 7.125 17.2969 6.79688C17.2031 6.70312 17.1094 6.60938 17.0625 6.46875C16.5469 5.57812 16.8281 4.45312 17.7188 3.9375C18.1875 3.70312 18.6562 3.60938 19.1719 3.75H19.2188C19.6406 2.67188 19.875 1.5 19.875 0.328125C19.875 0.140625 20.0156 0 20.2031 0C20.3906 0 20.5312 0.140625 20.5312 0.328125C20.5312 1.59375 20.2969 2.85938 19.7812 4.07812C20.0156 4.21875 20.1562 4.40625 20.2969 4.59375C20.5312 5.0625 20.625 5.53125 20.4844 6.04688C20.3438 6.51562 20.0156 6.89062 19.5938 7.17188C19.3125 7.3125 18.9844 7.40625 18.6562 7.40625C18.5156 7.40625 18.3281 7.40625 18.1875 7.35938C18.0469 7.3125 17.9062 7.26562 17.8125 7.21875C17.4375 7.54688 17.1094 7.92188 16.6875 8.20312C16.7812 8.4375 16.8281 8.67188 16.8281 8.95312C16.8281 9.98438 15.9844 10.8281 14.9531 10.8281C14.2969 10.8281 13.7344 10.4531 13.4062 9.9375C12.8906 10.0781 12.4219 10.2188 11.9062 10.2656C11.9062 10.5 11.8125 10.7344 11.6719 10.9688C11.4375 11.3906 11.0156 11.7188 10.5469 11.8594C10.5 11.8594 10.4531 11.8594 10.4062 11.8594V12.4688C10.4531 12.4688 10.5 12.5156 10.5938 12.5156C10.8281 12.6562 11.0156 12.8906 11.0625 13.1719C11.1562 13.4531 11.1094 13.7344 10.9688 13.9688C10.875 14.1562 10.7344 14.2969 10.5469 14.3906C10.6406 14.625 10.7812 14.8125 10.875 15.0938C11.8125 16.8281 13.0781 19.1719 13.0781 20.4375C13.0781 22.4062 11.7188 24 10.0781 24C8.39062 24 7.07812 22.4062 7.07812 20.4375C7.07812 19.1719 8.29688 16.8281 9.23438 15.0938C9.375 14.8594 9.46875 14.625 9.5625 14.3906C9.5625 14.3906 9.5625 14.3906 9.51562 14.3906C9.28125 14.25 9.09375 14.0156 9.04688 13.7344C8.95312 13.4531 9 13.1719 9.14062 12.9375C9.28125 12.7031 9.46875 12.5156 9.75 12.4219V11.9062C9.51562 11.8594 9.32812 11.7656 9.14062 11.6719C8.67188 11.3906 8.39062 11.0156 8.25 10.5469C8.20312 10.4062 8.20312 10.2656 8.20312 10.125C7.6875 9.98438 7.21875 9.84375 6.75 9.65625C6.60938 9.84375 6.42188 10.0312 6.1875 10.1719C5.90625 10.3125 5.57812 10.4062 5.25 10.4062C5.10938 10.4062 4.92188 10.3594 4.78125 10.3594C4.3125 10.2188 3.89062 9.89062 3.65625 9.46875C3.32812 8.90625 3.32812 8.20312 3.60938 7.6875C3.23438 7.3125 2.90625 6.9375 2.57812 6.5625C2.34375 6.65625 2.10938 6.70312 1.875 6.70312C0.84375 6.70312 0 5.85938 0 4.82812C0 4.17188 0.328125 3.5625 0.84375 3.23438C0.5625 2.29688 0.421875 1.3125 0.421875 0.328125C0.421875 0.140625 0.5625 0 0.75 0C0.9375 0 1.07812 0.140625 1.07812 0.328125C1.07812 1.26562 1.21875 2.15625 1.45312 3C1.59375 3 1.73438 2.95312 1.875 2.95312C2.90625 2.95312 3.70312 3.79688 3.70312 4.82812C3.70312 5.34375 3.51562 5.85938 3.14062 6.1875C3.42188 6.51562 3.70312 6.84375 4.03125 7.125C4.125 7.07812 4.21875 6.98438 4.3125 6.9375C4.78125 6.65625 5.25 6.60938 5.76562 6.75C6.23438 6.84375 6.60938 7.17188 6.89062 7.59375C7.125 8.0625 7.17188 8.57812 7.03125 9.09375C7.45312 9.23438 7.875 9.375 8.29688 9.46875C8.34375 9.32812 8.39062 9.23438 8.4375 9.09375C8.67188 8.67188 9.09375 8.39062 9.5625 8.25C10.0781 8.10938 10.5469 8.15625 11.0156 8.4375C11.4375 8.67188 11.7656 9.14062 11.8594 9.60938ZM10.0781 22.2188C9.1875 22.2188 8.67188 21.1406 8.67188 20.3438C8.67188 19.875 9 19.0312 9.79688 17.4844C9.84375 17.3438 9.9375 17.2969 10.0781 17.2969C10.1719 17.2969 10.2656 17.3906 10.3125 17.4844C11.0625 18.9844 11.4375 19.875 11.4375 20.3438C11.4375 21.1406 10.9688 22.2188 10.0781 22.2188ZM9.70312 13.2656C9.65625 13.3594 9.65625 13.4531 9.65625 13.5469C9.70312 13.6875 9.75 13.7344 9.84375 13.8281C10.0312 13.9219 10.3125 13.875 10.4062 13.6406C10.4531 13.5469 10.4531 13.4531 10.4531 13.3594C10.4062 13.2656 10.3594 13.1719 10.2656 13.125C10.1719 13.0312 10.0312 13.0312 9.9375 13.0781C9.84375 13.0781 9.75 13.1719 9.70312 13.2656Z" fill="white"/>
</svg>
