<svg width="13" height="24" viewBox="0 0 13 24" fill="none" xmlns="http://www.w3.org/2000/svg">
<path fill-rule="evenodd" clip-rule="evenodd" d="M0.0324739 4.06641C0.0502821 6.30295 0.0766201 11.0648 0.0909365 14.6484C0.105253 18.232 0.130344 21.8022 0.146706 22.582L0.176436 24H2.39049H4.60455L4.605 23.4961C4.60659 21.8097 4.82977 18.385 5.13111 15.4219C5.36895 13.0834 5.86464 9.17798 6.14553 7.42969L6.23587 6.86719L6.36053 7.125C7.08498 8.62327 7.65334 13.0508 7.9702 19.6641C8.01096 20.5148 8.05959 21.8068 8.0783 22.5352L8.11227 23.8594H10.468H12.8237L12.8535 22.2539C12.8699 21.3709 12.8949 17.8535 12.9092 14.4375C12.9235 11.0215 12.9497 6.37561 12.9676 4.11328L13 0H6.5H0L0.0324739 4.06641Z" fill="white"/>
</svg>
