<svg width="19" height="986" viewBox="0 0 19 986" fill="none" xmlns="http://www.w3.org/2000/svg">
<path d="M1.0394 0L18.9903 4.89006L18.0837 8.21805L0.132812 3.32799L1.0394 0Z" fill="url(#paint0_linear_6862_281)" fill-opacity="0.37"/>
<path d="M0.906589 24.4355L18.8575 29.3256L17.9509 32.6536L0 27.7635L0.906589 24.4355Z" fill="url(#paint1_linear_6862_281)" fill-opacity="0.37"/>
<path d="M0.906589 12.2178L18.8575 17.1078L17.9509 20.4358L0 15.5458L0.906589 12.2178Z" fill="url(#paint2_linear_6862_281)" fill-opacity="0.37"/>
<path d="M1.0394 36.6533L18.9903 41.5434L18.0837 44.8714L0.132812 39.9813L1.0394 36.6533Z" fill="url(#paint3_linear_6862_281)" fill-opacity="0.37"/>
<path d="M0.906589 61.0889L18.8575 65.9789L17.9509 69.3069L0 64.4169L0.906589 61.0889Z" fill="url(#paint4_linear_6862_281)" fill-opacity="0.37"/>
<path d="M0.906589 48.8711L18.8575 53.7612L17.9509 57.0891L0 52.1991L0.906589 48.8711Z" fill="url(#paint5_linear_6862_281)" fill-opacity="0.37"/>
<path d="M1.0394 73.3066L18.9903 78.1967L18.0837 81.5247L0.132812 76.6346L1.0394 73.3066Z" fill="url(#paint6_linear_6862_281)" fill-opacity="0.37"/>
<path d="M0.906589 97.7422L18.8575 102.632L17.9509 105.96L0 101.07L0.906589 97.7422Z" fill="url(#paint7_linear_6862_281)" fill-opacity="0.37"/>
<path d="M0.906589 85.5244L18.8575 90.4145L17.9509 93.7425L0 88.8524L0.906589 85.5244Z" fill="url(#paint8_linear_6862_281)" fill-opacity="0.37"/>
<path d="M1.0394 110L18.9903 114.89L18.0837 118.218L0.132812 113.328L1.0394 110Z" fill="url(#paint9_linear_6862_281)" fill-opacity="0.37"/>
<path d="M0.906589 134.436L18.8575 139.326L17.9509 142.654L0 137.764L0.906589 134.436Z" fill="url(#paint10_linear_6862_281)" fill-opacity="0.37"/>
<path d="M0.906589 122.218L18.8575 127.108L17.9509 130.436L0 125.546L0.906589 122.218Z" fill="url(#paint11_linear_6862_281)" fill-opacity="0.37"/>
<path d="M1.0394 146.653L18.9903 151.543L18.0837 154.871L0.132812 149.981L1.0394 146.653Z" fill="url(#paint12_linear_6862_281)" fill-opacity="0.37"/>
<path d="M0.906589 171.089L18.8575 175.979L17.9509 179.307L0 174.417L0.906589 171.089Z" fill="url(#paint13_linear_6862_281)" fill-opacity="0.37"/>
<path d="M0.906589 158.871L18.8575 163.761L17.9509 167.089L0 162.199L0.906589 158.871Z" fill="url(#paint14_linear_6862_281)" fill-opacity="0.37"/>
<path d="M1.0394 183.307L18.9903 188.197L18.0837 191.525L0.132812 186.635L1.0394 183.307Z" fill="url(#paint15_linear_6862_281)" fill-opacity="0.37"/>
<path d="M0.906589 207.742L18.8575 212.632L17.9509 215.96L0 211.07L0.906589 207.742Z" fill="url(#paint16_linear_6862_281)" fill-opacity="0.37"/>
<path d="M0.906589 195.524L18.8575 200.414L17.9509 203.742L0 198.852L0.906589 195.524Z" fill="url(#paint17_linear_6862_281)" fill-opacity="0.37"/>
<path d="M1.0394 220L18.9903 224.89L18.0837 228.218L0.132812 223.328L1.0394 220Z" fill="url(#paint18_linear_6862_281)" fill-opacity="0.37"/>
<path d="M0.906589 244.436L18.8575 249.326L17.9509 252.654L0 247.764L0.906589 244.436Z" fill="url(#paint19_linear_6862_281)" fill-opacity="0.37"/>
<path d="M0.906589 232.218L18.8575 237.108L17.9509 240.436L0 235.546L0.906589 232.218Z" fill="url(#paint20_linear_6862_281)" fill-opacity="0.37"/>
<path d="M1.0394 256.653L18.9903 261.543L18.0837 264.871L0.132812 259.981L1.0394 256.653Z" fill="url(#paint21_linear_6862_281)" fill-opacity="0.37"/>
<path d="M0.906589 281.089L18.8575 285.979L17.9509 289.307L0 284.417L0.906589 281.089Z" fill="url(#paint22_linear_6862_281)" fill-opacity="0.37"/>
<path d="M0.906589 268.871L18.8575 273.761L17.9509 277.089L0 272.199L0.906589 268.871Z" fill="url(#paint23_linear_6862_281)" fill-opacity="0.37"/>
<path d="M1.0394 293.307L18.9903 298.197L18.0837 301.525L0.132812 296.635L1.0394 293.307Z" fill="url(#paint24_linear_6862_281)" fill-opacity="0.37"/>
<path d="M0.906589 317.742L18.8575 322.632L17.9509 325.96L0 321.07L0.906589 317.742Z" fill="url(#paint25_linear_6862_281)" fill-opacity="0.37"/>
<path d="M0.906589 305.524L18.8575 310.414L17.9509 313.742L0 308.852L0.906589 305.524Z" fill="url(#paint26_linear_6862_281)" fill-opacity="0.37"/>
<path d="M1.0394 330L18.9903 334.89L18.0837 338.218L0.132812 333.328L1.0394 330Z" fill="url(#paint27_linear_6862_281)" fill-opacity="0.37"/>
<path d="M0.906589 354.436L18.8575 359.326L17.9509 362.654L0 357.764L0.906589 354.436Z" fill="url(#paint28_linear_6862_281)" fill-opacity="0.37"/>
<path d="M0.906589 342.218L18.8575 347.108L17.9509 350.436L0 345.546L0.906589 342.218Z" fill="url(#paint29_linear_6862_281)" fill-opacity="0.37"/>
<path d="M1.0394 366.653L18.9903 371.543L18.0837 374.871L0.132812 369.981L1.0394 366.653Z" fill="url(#paint30_linear_6862_281)" fill-opacity="0.37"/>
<path d="M0.906589 391.089L18.8575 395.979L17.9509 399.307L0 394.417L0.906589 391.089Z" fill="url(#paint31_linear_6862_281)" fill-opacity="0.37"/>
<path d="M0.906589 378.871L18.8575 383.761L17.9509 387.089L0 382.199L0.906589 378.871Z" fill="url(#paint32_linear_6862_281)" fill-opacity="0.37"/>
<path d="M1.0394 403.307L18.9903 408.197L18.0837 411.525L0.132812 406.635L1.0394 403.307Z" fill="url(#paint33_linear_6862_281)" fill-opacity="0.37"/>
<path d="M0.906589 427.742L18.8575 432.632L17.9509 435.96L0 431.07L0.906589 427.742Z" fill="url(#paint34_linear_6862_281)" fill-opacity="0.37"/>
<path d="M0.906589 415.524L18.8575 420.414L17.9509 423.742L0 418.852L0.906589 415.524Z" fill="url(#paint35_linear_6862_281)" fill-opacity="0.37"/>
<path d="M1.0394 440L18.9903 444.89L18.0837 448.218L0.132812 443.328L1.0394 440Z" fill="url(#paint36_linear_6862_281)" fill-opacity="0.37"/>
<path d="M0.906589 464.436L18.8575 469.326L17.9509 472.654L0 467.764L0.906589 464.436Z" fill="url(#paint37_linear_6862_281)" fill-opacity="0.37"/>
<path d="M0.906589 452.218L18.8575 457.108L17.9509 460.436L0 455.546L0.906589 452.218Z" fill="url(#paint38_linear_6862_281)" fill-opacity="0.37"/>
<path d="M1.0394 476.653L18.9903 481.543L18.0837 484.871L0.132812 479.981L1.0394 476.653Z" fill="url(#paint39_linear_6862_281)" fill-opacity="0.37"/>
<path d="M0.906589 501.089L18.8575 505.979L17.9509 509.307L0 504.417L0.906589 501.089Z" fill="url(#paint40_linear_6862_281)" fill-opacity="0.37"/>
<path d="M0.906589 488.871L18.8575 493.761L17.9509 497.089L0 492.199L0.906589 488.871Z" fill="url(#paint41_linear_6862_281)" fill-opacity="0.37"/>
<path d="M1.0394 513.307L18.9903 518.197L18.0837 521.525L0.132812 516.635L1.0394 513.307Z" fill="url(#paint42_linear_6862_281)" fill-opacity="0.37"/>
<path d="M0.906589 537.742L18.8575 542.632L17.9509 545.96L0 541.07L0.906589 537.742Z" fill="url(#paint43_linear_6862_281)" fill-opacity="0.37"/>
<path d="M0.906589 525.524L18.8575 530.414L17.9509 533.742L0 528.852L0.906589 525.524Z" fill="url(#paint44_linear_6862_281)" fill-opacity="0.37"/>
<path d="M1.0394 550L18.9903 554.89L18.0837 558.218L0.132812 553.328L1.0394 550Z" fill="url(#paint45_linear_6862_281)" fill-opacity="0.37"/>
<path d="M0.906589 574.436L18.8575 579.326L17.9509 582.654L0 577.764L0.906589 574.436Z" fill="url(#paint46_linear_6862_281)" fill-opacity="0.37"/>
<path d="M0.906589 562.218L18.8575 567.108L17.9509 570.436L0 565.546L0.906589 562.218Z" fill="url(#paint47_linear_6862_281)" fill-opacity="0.37"/>
<path d="M1.0394 586.653L18.9903 591.543L18.0837 594.871L0.132812 589.981L1.0394 586.653Z" fill="url(#paint48_linear_6862_281)" fill-opacity="0.37"/>
<path d="M0.906589 611.089L18.8575 615.979L17.9509 619.307L0 614.417L0.906589 611.089Z" fill="url(#paint49_linear_6862_281)" fill-opacity="0.37"/>
<path d="M0.906589 598.871L18.8575 603.761L17.9509 607.089L0 602.199L0.906589 598.871Z" fill="url(#paint50_linear_6862_281)" fill-opacity="0.37"/>
<path d="M1.0394 623.307L18.9903 628.197L18.0837 631.525L0.132812 626.635L1.0394 623.307Z" fill="url(#paint51_linear_6862_281)" fill-opacity="0.37"/>
<path d="M0.906589 647.742L18.8575 652.632L17.9509 655.96L0 651.07L0.906589 647.742Z" fill="url(#paint52_linear_6862_281)" fill-opacity="0.37"/>
<path d="M0.906589 635.524L18.8575 640.414L17.9509 643.742L0 638.852L0.906589 635.524Z" fill="url(#paint53_linear_6862_281)" fill-opacity="0.37"/>
<path d="M1.0394 660L18.9903 664.89L18.0837 668.218L0.132812 663.328L1.0394 660Z" fill="url(#paint54_linear_6862_281)" fill-opacity="0.37"/>
<path d="M0.906589 684.436L18.8575 689.326L17.9509 692.654L0 687.764L0.906589 684.436Z" fill="url(#paint55_linear_6862_281)" fill-opacity="0.37"/>
<path d="M0.906589 672.218L18.8575 677.108L17.9509 680.436L0 675.546L0.906589 672.218Z" fill="url(#paint56_linear_6862_281)" fill-opacity="0.37"/>
<path d="M1.0394 696.653L18.9903 701.543L18.0837 704.871L0.132812 699.981L1.0394 696.653Z" fill="url(#paint57_linear_6862_281)" fill-opacity="0.37"/>
<path d="M0.906589 721.089L18.8575 725.979L17.9509 729.307L0 724.417L0.906589 721.089Z" fill="url(#paint58_linear_6862_281)" fill-opacity="0.37"/>
<path d="M0.906589 708.871L18.8575 713.761L17.9509 717.089L0 712.199L0.906589 708.871Z" fill="url(#paint59_linear_6862_281)" fill-opacity="0.37"/>
<path d="M1.0394 733.307L18.9903 738.197L18.0837 741.525L0.132812 736.635L1.0394 733.307Z" fill="url(#paint60_linear_6862_281)" fill-opacity="0.37"/>
<path d="M0.906589 757.742L18.8575 762.632L17.9509 765.96L0 761.07L0.906589 757.742Z" fill="url(#paint61_linear_6862_281)" fill-opacity="0.37"/>
<path d="M0.906589 745.524L18.8575 750.414L17.9509 753.742L0 748.852L0.906589 745.524Z" fill="url(#paint62_linear_6862_281)" fill-opacity="0.37"/>
<path d="M1.0394 770L18.9903 774.89L18.0837 778.218L0.132812 773.328L1.0394 770Z" fill="url(#paint63_linear_6862_281)" fill-opacity="0.37"/>
<path d="M0.906589 794.436L18.8575 799.326L17.9509 802.654L0 797.764L0.906589 794.436Z" fill="url(#paint64_linear_6862_281)" fill-opacity="0.37"/>
<path d="M0.906589 782.218L18.8575 787.108L17.9509 790.436L0 785.546L0.906589 782.218Z" fill="url(#paint65_linear_6862_281)" fill-opacity="0.37"/>
<path d="M1.0394 806.653L18.9903 811.543L18.0837 814.871L0.132812 809.981L1.0394 806.653Z" fill="url(#paint66_linear_6862_281)" fill-opacity="0.37"/>
<path d="M0.906589 831.089L18.8575 835.979L17.9509 839.307L0 834.417L0.906589 831.089Z" fill="url(#paint67_linear_6862_281)" fill-opacity="0.37"/>
<path d="M0.906589 818.871L18.8575 823.761L17.9509 827.089L0 822.199L0.906589 818.871Z" fill="url(#paint68_linear_6862_281)" fill-opacity="0.37"/>
<path d="M1.0394 843.307L18.9903 848.197L18.0837 851.525L0.132812 846.635L1.0394 843.307Z" fill="url(#paint69_linear_6862_281)" fill-opacity="0.37"/>
<path d="M0.906589 867.742L18.8575 872.632L17.9509 875.96L0 871.07L0.906589 867.742Z" fill="url(#paint70_linear_6862_281)" fill-opacity="0.37"/>
<path d="M0.906589 855.524L18.8575 860.414L17.9509 863.742L0 858.852L0.906589 855.524Z" fill="url(#paint71_linear_6862_281)" fill-opacity="0.37"/>
<path d="M1.0394 880L18.9903 884.89L18.0837 888.218L0.132812 883.328L1.0394 880Z" fill="url(#paint72_linear_6862_281)" fill-opacity="0.37"/>
<path d="M0.906589 904.436L18.8575 909.326L17.9509 912.654L0 907.764L0.906589 904.436Z" fill="url(#paint73_linear_6862_281)" fill-opacity="0.37"/>
<path d="M0.906589 892.218L18.8575 897.108L17.9509 900.436L0 895.546L0.906589 892.218Z" fill="url(#paint74_linear_6862_281)" fill-opacity="0.37"/>
<path d="M1.0394 916.653L18.9903 921.543L18.0837 924.871L0.132812 919.981L1.0394 916.653Z" fill="url(#paint75_linear_6862_281)" fill-opacity="0.37"/>
<path d="M0.906589 941.089L18.8575 945.979L17.9509 949.307L0 944.417L0.906589 941.089Z" fill="url(#paint76_linear_6862_281)" fill-opacity="0.37"/>
<path d="M0.906589 928.871L18.8575 933.761L17.9509 937.089L0 932.199L0.906589 928.871Z" fill="url(#paint77_linear_6862_281)" fill-opacity="0.37"/>
<path d="M1.0394 953.307L18.9903 958.197L18.0837 961.525L0.132812 956.635L1.0394 953.307Z" fill="url(#paint78_linear_6862_281)" fill-opacity="0.37"/>
<path d="M0.906589 977.742L18.8575 982.632L17.9509 985.96L0 981.07L0.906589 977.742Z" fill="url(#paint79_linear_6862_281)" fill-opacity="0.37"/>
<path d="M0.906589 965.524L18.8575 970.414L17.9509 973.742L0 968.852L0.906589 965.524Z" fill="url(#paint80_linear_6862_281)" fill-opacity="0.37"/>
<defs>
<linearGradient id="paint0_linear_6862_281" x1="9.49515" y1="0" x2="9.49515" y2="985.96" gradientUnits="userSpaceOnUse">
<stop stop-color="white" stop-opacity="0"/>
<stop offset="0.5" stop-color="white"/>
<stop offset="1" stop-color="white" stop-opacity="0"/>
</linearGradient>
<linearGradient id="paint1_linear_6862_281" x1="9.49515" y1="0" x2="9.49515" y2="985.96" gradientUnits="userSpaceOnUse">
<stop stop-color="white" stop-opacity="0"/>
<stop offset="0.5" stop-color="white"/>
<stop offset="1" stop-color="white" stop-opacity="0"/>
</linearGradient>
<linearGradient id="paint2_linear_6862_281" x1="9.49515" y1="0" x2="9.49515" y2="985.96" gradientUnits="userSpaceOnUse">
<stop stop-color="white" stop-opacity="0"/>
<stop offset="0.5" stop-color="white"/>
<stop offset="1" stop-color="white" stop-opacity="0"/>
</linearGradient>
<linearGradient id="paint3_linear_6862_281" x1="9.49515" y1="0" x2="9.49515" y2="985.96" gradientUnits="userSpaceOnUse">
<stop stop-color="white" stop-opacity="0"/>
<stop offset="0.5" stop-color="white"/>
<stop offset="1" stop-color="white" stop-opacity="0"/>
</linearGradient>
<linearGradient id="paint4_linear_6862_281" x1="9.49515" y1="0" x2="9.49515" y2="985.96" gradientUnits="userSpaceOnUse">
<stop stop-color="white" stop-opacity="0"/>
<stop offset="0.5" stop-color="white"/>
<stop offset="1" stop-color="white" stop-opacity="0"/>
</linearGradient>
<linearGradient id="paint5_linear_6862_281" x1="9.49515" y1="0" x2="9.49515" y2="985.96" gradientUnits="userSpaceOnUse">
<stop stop-color="white" stop-opacity="0"/>
<stop offset="0.5" stop-color="white"/>
<stop offset="1" stop-color="white" stop-opacity="0"/>
</linearGradient>
<linearGradient id="paint6_linear_6862_281" x1="9.49515" y1="0" x2="9.49515" y2="985.96" gradientUnits="userSpaceOnUse">
<stop stop-color="white" stop-opacity="0"/>
<stop offset="0.5" stop-color="white"/>
<stop offset="1" stop-color="white" stop-opacity="0"/>
</linearGradient>
<linearGradient id="paint7_linear_6862_281" x1="9.49515" y1="0" x2="9.49515" y2="985.96" gradientUnits="userSpaceOnUse">
<stop stop-color="white" stop-opacity="0"/>
<stop offset="0.5" stop-color="white"/>
<stop offset="1" stop-color="white" stop-opacity="0"/>
</linearGradient>
<linearGradient id="paint8_linear_6862_281" x1="9.49515" y1="0" x2="9.49515" y2="985.96" gradientUnits="userSpaceOnUse">
<stop stop-color="white" stop-opacity="0"/>
<stop offset="0.5" stop-color="white"/>
<stop offset="1" stop-color="white" stop-opacity="0"/>
</linearGradient>
<linearGradient id="paint9_linear_6862_281" x1="9.49515" y1="0" x2="9.49515" y2="985.96" gradientUnits="userSpaceOnUse">
<stop stop-color="white" stop-opacity="0"/>
<stop offset="0.5" stop-color="white"/>
<stop offset="1" stop-color="white" stop-opacity="0"/>
</linearGradient>
<linearGradient id="paint10_linear_6862_281" x1="9.49515" y1="0" x2="9.49515" y2="985.96" gradientUnits="userSpaceOnUse">
<stop stop-color="white" stop-opacity="0"/>
<stop offset="0.5" stop-color="white"/>
<stop offset="1" stop-color="white" stop-opacity="0"/>
</linearGradient>
<linearGradient id="paint11_linear_6862_281" x1="9.49515" y1="0" x2="9.49515" y2="985.96" gradientUnits="userSpaceOnUse">
<stop stop-color="white" stop-opacity="0"/>
<stop offset="0.5" stop-color="white"/>
<stop offset="1" stop-color="white" stop-opacity="0"/>
</linearGradient>
<linearGradient id="paint12_linear_6862_281" x1="9.49515" y1="0" x2="9.49515" y2="985.96" gradientUnits="userSpaceOnUse">
<stop stop-color="white" stop-opacity="0"/>
<stop offset="0.5" stop-color="white"/>
<stop offset="1" stop-color="white" stop-opacity="0"/>
</linearGradient>
<linearGradient id="paint13_linear_6862_281" x1="9.49515" y1="0" x2="9.49515" y2="985.96" gradientUnits="userSpaceOnUse">
<stop stop-color="white" stop-opacity="0"/>
<stop offset="0.5" stop-color="white"/>
<stop offset="1" stop-color="white" stop-opacity="0"/>
</linearGradient>
<linearGradient id="paint14_linear_6862_281" x1="9.49515" y1="0" x2="9.49515" y2="985.96" gradientUnits="userSpaceOnUse">
<stop stop-color="white" stop-opacity="0"/>
<stop offset="0.5" stop-color="white"/>
<stop offset="1" stop-color="white" stop-opacity="0"/>
</linearGradient>
<linearGradient id="paint15_linear_6862_281" x1="9.49515" y1="0" x2="9.49515" y2="985.96" gradientUnits="userSpaceOnUse">
<stop stop-color="white" stop-opacity="0"/>
<stop offset="0.5" stop-color="white"/>
<stop offset="1" stop-color="white" stop-opacity="0"/>
</linearGradient>
<linearGradient id="paint16_linear_6862_281" x1="9.49515" y1="0" x2="9.49515" y2="985.96" gradientUnits="userSpaceOnUse">
<stop stop-color="white" stop-opacity="0"/>
<stop offset="0.5" stop-color="white"/>
<stop offset="1" stop-color="white" stop-opacity="0"/>
</linearGradient>
<linearGradient id="paint17_linear_6862_281" x1="9.49515" y1="0" x2="9.49515" y2="985.96" gradientUnits="userSpaceOnUse">
<stop stop-color="white" stop-opacity="0"/>
<stop offset="0.5" stop-color="white"/>
<stop offset="1" stop-color="white" stop-opacity="0"/>
</linearGradient>
<linearGradient id="paint18_linear_6862_281" x1="9.49515" y1="0" x2="9.49515" y2="985.96" gradientUnits="userSpaceOnUse">
<stop stop-color="white" stop-opacity="0"/>
<stop offset="0.5" stop-color="white"/>
<stop offset="1" stop-color="white" stop-opacity="0"/>
</linearGradient>
<linearGradient id="paint19_linear_6862_281" x1="9.49515" y1="0" x2="9.49515" y2="985.96" gradientUnits="userSpaceOnUse">
<stop stop-color="white" stop-opacity="0"/>
<stop offset="0.5" stop-color="white"/>
<stop offset="1" stop-color="white" stop-opacity="0"/>
</linearGradient>
<linearGradient id="paint20_linear_6862_281" x1="9.49515" y1="0" x2="9.49515" y2="985.96" gradientUnits="userSpaceOnUse">
<stop stop-color="white" stop-opacity="0"/>
<stop offset="0.5" stop-color="white"/>
<stop offset="1" stop-color="white" stop-opacity="0"/>
</linearGradient>
<linearGradient id="paint21_linear_6862_281" x1="9.49515" y1="0" x2="9.49515" y2="985.96" gradientUnits="userSpaceOnUse">
<stop stop-color="white" stop-opacity="0"/>
<stop offset="0.5" stop-color="white"/>
<stop offset="1" stop-color="white" stop-opacity="0"/>
</linearGradient>
<linearGradient id="paint22_linear_6862_281" x1="9.49515" y1="0" x2="9.49515" y2="985.96" gradientUnits="userSpaceOnUse">
<stop stop-color="white" stop-opacity="0"/>
<stop offset="0.5" stop-color="white"/>
<stop offset="1" stop-color="white" stop-opacity="0"/>
</linearGradient>
<linearGradient id="paint23_linear_6862_281" x1="9.49515" y1="0" x2="9.49515" y2="985.96" gradientUnits="userSpaceOnUse">
<stop stop-color="white" stop-opacity="0"/>
<stop offset="0.5" stop-color="white"/>
<stop offset="1" stop-color="white" stop-opacity="0"/>
</linearGradient>
<linearGradient id="paint24_linear_6862_281" x1="9.49515" y1="0" x2="9.49515" y2="985.96" gradientUnits="userSpaceOnUse">
<stop stop-color="white" stop-opacity="0"/>
<stop offset="0.5" stop-color="white"/>
<stop offset="1" stop-color="white" stop-opacity="0"/>
</linearGradient>
<linearGradient id="paint25_linear_6862_281" x1="9.49515" y1="0" x2="9.49515" y2="985.96" gradientUnits="userSpaceOnUse">
<stop stop-color="white" stop-opacity="0"/>
<stop offset="0.5" stop-color="white"/>
<stop offset="1" stop-color="white" stop-opacity="0"/>
</linearGradient>
<linearGradient id="paint26_linear_6862_281" x1="9.49515" y1="0" x2="9.49515" y2="985.96" gradientUnits="userSpaceOnUse">
<stop stop-color="white" stop-opacity="0"/>
<stop offset="0.5" stop-color="white"/>
<stop offset="1" stop-color="white" stop-opacity="0"/>
</linearGradient>
<linearGradient id="paint27_linear_6862_281" x1="9.49515" y1="0" x2="9.49515" y2="985.96" gradientUnits="userSpaceOnUse">
<stop stop-color="white" stop-opacity="0"/>
<stop offset="0.5" stop-color="white"/>
<stop offset="1" stop-color="white" stop-opacity="0"/>
</linearGradient>
<linearGradient id="paint28_linear_6862_281" x1="9.49515" y1="0" x2="9.49515" y2="985.96" gradientUnits="userSpaceOnUse">
<stop stop-color="white" stop-opacity="0"/>
<stop offset="0.5" stop-color="white"/>
<stop offset="1" stop-color="white" stop-opacity="0"/>
</linearGradient>
<linearGradient id="paint29_linear_6862_281" x1="9.49515" y1="0" x2="9.49515" y2="985.96" gradientUnits="userSpaceOnUse">
<stop stop-color="white" stop-opacity="0"/>
<stop offset="0.5" stop-color="white"/>
<stop offset="1" stop-color="white" stop-opacity="0"/>
</linearGradient>
<linearGradient id="paint30_linear_6862_281" x1="9.49515" y1="0" x2="9.49515" y2="985.96" gradientUnits="userSpaceOnUse">
<stop stop-color="white" stop-opacity="0"/>
<stop offset="0.5" stop-color="white"/>
<stop offset="1" stop-color="white" stop-opacity="0"/>
</linearGradient>
<linearGradient id="paint31_linear_6862_281" x1="9.49515" y1="0" x2="9.49515" y2="985.96" gradientUnits="userSpaceOnUse">
<stop stop-color="white" stop-opacity="0"/>
<stop offset="0.5" stop-color="white"/>
<stop offset="1" stop-color="white" stop-opacity="0"/>
</linearGradient>
<linearGradient id="paint32_linear_6862_281" x1="9.49515" y1="0" x2="9.49515" y2="985.96" gradientUnits="userSpaceOnUse">
<stop stop-color="white" stop-opacity="0"/>
<stop offset="0.5" stop-color="white"/>
<stop offset="1" stop-color="white" stop-opacity="0"/>
</linearGradient>
<linearGradient id="paint33_linear_6862_281" x1="9.49515" y1="0" x2="9.49515" y2="985.96" gradientUnits="userSpaceOnUse">
<stop stop-color="white" stop-opacity="0"/>
<stop offset="0.5" stop-color="white"/>
<stop offset="1" stop-color="white" stop-opacity="0"/>
</linearGradient>
<linearGradient id="paint34_linear_6862_281" x1="9.49515" y1="0" x2="9.49515" y2="985.96" gradientUnits="userSpaceOnUse">
<stop stop-color="white" stop-opacity="0"/>
<stop offset="0.5" stop-color="white"/>
<stop offset="1" stop-color="white" stop-opacity="0"/>
</linearGradient>
<linearGradient id="paint35_linear_6862_281" x1="9.49515" y1="0" x2="9.49515" y2="985.96" gradientUnits="userSpaceOnUse">
<stop stop-color="white" stop-opacity="0"/>
<stop offset="0.5" stop-color="white"/>
<stop offset="1" stop-color="white" stop-opacity="0"/>
</linearGradient>
<linearGradient id="paint36_linear_6862_281" x1="9.49515" y1="0" x2="9.49515" y2="985.96" gradientUnits="userSpaceOnUse">
<stop stop-color="white" stop-opacity="0"/>
<stop offset="0.5" stop-color="white"/>
<stop offset="1" stop-color="white" stop-opacity="0"/>
</linearGradient>
<linearGradient id="paint37_linear_6862_281" x1="9.49515" y1="0" x2="9.49515" y2="985.96" gradientUnits="userSpaceOnUse">
<stop stop-color="white" stop-opacity="0"/>
<stop offset="0.5" stop-color="white"/>
<stop offset="1" stop-color="white" stop-opacity="0"/>
</linearGradient>
<linearGradient id="paint38_linear_6862_281" x1="9.49515" y1="0" x2="9.49515" y2="985.96" gradientUnits="userSpaceOnUse">
<stop stop-color="white" stop-opacity="0"/>
<stop offset="0.5" stop-color="white"/>
<stop offset="1" stop-color="white" stop-opacity="0"/>
</linearGradient>
<linearGradient id="paint39_linear_6862_281" x1="9.49515" y1="0" x2="9.49515" y2="985.96" gradientUnits="userSpaceOnUse">
<stop stop-color="white" stop-opacity="0"/>
<stop offset="0.5" stop-color="white"/>
<stop offset="1" stop-color="white" stop-opacity="0"/>
</linearGradient>
<linearGradient id="paint40_linear_6862_281" x1="9.49515" y1="0" x2="9.49515" y2="985.96" gradientUnits="userSpaceOnUse">
<stop stop-color="white" stop-opacity="0"/>
<stop offset="0.5" stop-color="white"/>
<stop offset="1" stop-color="white" stop-opacity="0"/>
</linearGradient>
<linearGradient id="paint41_linear_6862_281" x1="9.49515" y1="0" x2="9.49515" y2="985.96" gradientUnits="userSpaceOnUse">
<stop stop-color="white" stop-opacity="0"/>
<stop offset="0.5" stop-color="white"/>
<stop offset="1" stop-color="white" stop-opacity="0"/>
</linearGradient>
<linearGradient id="paint42_linear_6862_281" x1="9.49515" y1="0" x2="9.49515" y2="985.96" gradientUnits="userSpaceOnUse">
<stop stop-color="white" stop-opacity="0"/>
<stop offset="0.5" stop-color="white"/>
<stop offset="1" stop-color="white" stop-opacity="0"/>
</linearGradient>
<linearGradient id="paint43_linear_6862_281" x1="9.49515" y1="0" x2="9.49515" y2="985.96" gradientUnits="userSpaceOnUse">
<stop stop-color="white" stop-opacity="0"/>
<stop offset="0.5" stop-color="white"/>
<stop offset="1" stop-color="white" stop-opacity="0"/>
</linearGradient>
<linearGradient id="paint44_linear_6862_281" x1="9.49515" y1="0" x2="9.49515" y2="985.96" gradientUnits="userSpaceOnUse">
<stop stop-color="white" stop-opacity="0"/>
<stop offset="0.5" stop-color="white"/>
<stop offset="1" stop-color="white" stop-opacity="0"/>
</linearGradient>
<linearGradient id="paint45_linear_6862_281" x1="9.49515" y1="0" x2="9.49515" y2="985.96" gradientUnits="userSpaceOnUse">
<stop stop-color="white" stop-opacity="0"/>
<stop offset="0.5" stop-color="white"/>
<stop offset="1" stop-color="white" stop-opacity="0"/>
</linearGradient>
<linearGradient id="paint46_linear_6862_281" x1="9.49515" y1="0" x2="9.49515" y2="985.96" gradientUnits="userSpaceOnUse">
<stop stop-color="white" stop-opacity="0"/>
<stop offset="0.5" stop-color="white"/>
<stop offset="1" stop-color="white" stop-opacity="0"/>
</linearGradient>
<linearGradient id="paint47_linear_6862_281" x1="9.49515" y1="0" x2="9.49515" y2="985.96" gradientUnits="userSpaceOnUse">
<stop stop-color="white" stop-opacity="0"/>
<stop offset="0.5" stop-color="white"/>
<stop offset="1" stop-color="white" stop-opacity="0"/>
</linearGradient>
<linearGradient id="paint48_linear_6862_281" x1="9.49515" y1="0" x2="9.49515" y2="985.96" gradientUnits="userSpaceOnUse">
<stop stop-color="white" stop-opacity="0"/>
<stop offset="0.5" stop-color="white"/>
<stop offset="1" stop-color="white" stop-opacity="0"/>
</linearGradient>
<linearGradient id="paint49_linear_6862_281" x1="9.49515" y1="0" x2="9.49515" y2="985.96" gradientUnits="userSpaceOnUse">
<stop stop-color="white" stop-opacity="0"/>
<stop offset="0.5" stop-color="white"/>
<stop offset="1" stop-color="white" stop-opacity="0"/>
</linearGradient>
<linearGradient id="paint50_linear_6862_281" x1="9.49515" y1="0" x2="9.49515" y2="985.96" gradientUnits="userSpaceOnUse">
<stop stop-color="white" stop-opacity="0"/>
<stop offset="0.5" stop-color="white"/>
<stop offset="1" stop-color="white" stop-opacity="0"/>
</linearGradient>
<linearGradient id="paint51_linear_6862_281" x1="9.49515" y1="0" x2="9.49515" y2="985.96" gradientUnits="userSpaceOnUse">
<stop stop-color="white" stop-opacity="0"/>
<stop offset="0.5" stop-color="white"/>
<stop offset="1" stop-color="white" stop-opacity="0"/>
</linearGradient>
<linearGradient id="paint52_linear_6862_281" x1="9.49515" y1="0" x2="9.49515" y2="985.96" gradientUnits="userSpaceOnUse">
<stop stop-color="white" stop-opacity="0"/>
<stop offset="0.5" stop-color="white"/>
<stop offset="1" stop-color="white" stop-opacity="0"/>
</linearGradient>
<linearGradient id="paint53_linear_6862_281" x1="9.49515" y1="0" x2="9.49515" y2="985.96" gradientUnits="userSpaceOnUse">
<stop stop-color="white" stop-opacity="0"/>
<stop offset="0.5" stop-color="white"/>
<stop offset="1" stop-color="white" stop-opacity="0"/>
</linearGradient>
<linearGradient id="paint54_linear_6862_281" x1="9.49515" y1="0" x2="9.49515" y2="985.96" gradientUnits="userSpaceOnUse">
<stop stop-color="white" stop-opacity="0"/>
<stop offset="0.5" stop-color="white"/>
<stop offset="1" stop-color="white" stop-opacity="0"/>
</linearGradient>
<linearGradient id="paint55_linear_6862_281" x1="9.49515" y1="0" x2="9.49515" y2="985.96" gradientUnits="userSpaceOnUse">
<stop stop-color="white" stop-opacity="0"/>
<stop offset="0.5" stop-color="white"/>
<stop offset="1" stop-color="white" stop-opacity="0"/>
</linearGradient>
<linearGradient id="paint56_linear_6862_281" x1="9.49515" y1="0" x2="9.49515" y2="985.96" gradientUnits="userSpaceOnUse">
<stop stop-color="white" stop-opacity="0"/>
<stop offset="0.5" stop-color="white"/>
<stop offset="1" stop-color="white" stop-opacity="0"/>
</linearGradient>
<linearGradient id="paint57_linear_6862_281" x1="9.49515" y1="0" x2="9.49515" y2="985.96" gradientUnits="userSpaceOnUse">
<stop stop-color="white" stop-opacity="0"/>
<stop offset="0.5" stop-color="white"/>
<stop offset="1" stop-color="white" stop-opacity="0"/>
</linearGradient>
<linearGradient id="paint58_linear_6862_281" x1="9.49515" y1="0" x2="9.49515" y2="985.96" gradientUnits="userSpaceOnUse">
<stop stop-color="white" stop-opacity="0"/>
<stop offset="0.5" stop-color="white"/>
<stop offset="1" stop-color="white" stop-opacity="0"/>
</linearGradient>
<linearGradient id="paint59_linear_6862_281" x1="9.49515" y1="0" x2="9.49515" y2="985.96" gradientUnits="userSpaceOnUse">
<stop stop-color="white" stop-opacity="0"/>
<stop offset="0.5" stop-color="white"/>
<stop offset="1" stop-color="white" stop-opacity="0"/>
</linearGradient>
<linearGradient id="paint60_linear_6862_281" x1="9.49515" y1="0" x2="9.49515" y2="985.96" gradientUnits="userSpaceOnUse">
<stop stop-color="white" stop-opacity="0"/>
<stop offset="0.5" stop-color="white"/>
<stop offset="1" stop-color="white" stop-opacity="0"/>
</linearGradient>
<linearGradient id="paint61_linear_6862_281" x1="9.49515" y1="0" x2="9.49515" y2="985.96" gradientUnits="userSpaceOnUse">
<stop stop-color="white" stop-opacity="0"/>
<stop offset="0.5" stop-color="white"/>
<stop offset="1" stop-color="white" stop-opacity="0"/>
</linearGradient>
<linearGradient id="paint62_linear_6862_281" x1="9.49515" y1="0" x2="9.49515" y2="985.96" gradientUnits="userSpaceOnUse">
<stop stop-color="white" stop-opacity="0"/>
<stop offset="0.5" stop-color="white"/>
<stop offset="1" stop-color="white" stop-opacity="0"/>
</linearGradient>
<linearGradient id="paint63_linear_6862_281" x1="9.49515" y1="0" x2="9.49515" y2="985.96" gradientUnits="userSpaceOnUse">
<stop stop-color="white" stop-opacity="0"/>
<stop offset="0.5" stop-color="white"/>
<stop offset="1" stop-color="white" stop-opacity="0"/>
</linearGradient>
<linearGradient id="paint64_linear_6862_281" x1="9.49515" y1="0" x2="9.49515" y2="985.96" gradientUnits="userSpaceOnUse">
<stop stop-color="white" stop-opacity="0"/>
<stop offset="0.5" stop-color="white"/>
<stop offset="1" stop-color="white" stop-opacity="0"/>
</linearGradient>
<linearGradient id="paint65_linear_6862_281" x1="9.49515" y1="0" x2="9.49515" y2="985.96" gradientUnits="userSpaceOnUse">
<stop stop-color="white" stop-opacity="0"/>
<stop offset="0.5" stop-color="white"/>
<stop offset="1" stop-color="white" stop-opacity="0"/>
</linearGradient>
<linearGradient id="paint66_linear_6862_281" x1="9.49515" y1="0" x2="9.49515" y2="985.96" gradientUnits="userSpaceOnUse">
<stop stop-color="white" stop-opacity="0"/>
<stop offset="0.5" stop-color="white"/>
<stop offset="1" stop-color="white" stop-opacity="0"/>
</linearGradient>
<linearGradient id="paint67_linear_6862_281" x1="9.49515" y1="0" x2="9.49515" y2="985.96" gradientUnits="userSpaceOnUse">
<stop stop-color="white" stop-opacity="0"/>
<stop offset="0.5" stop-color="white"/>
<stop offset="1" stop-color="white" stop-opacity="0"/>
</linearGradient>
<linearGradient id="paint68_linear_6862_281" x1="9.49515" y1="0" x2="9.49515" y2="985.96" gradientUnits="userSpaceOnUse">
<stop stop-color="white" stop-opacity="0"/>
<stop offset="0.5" stop-color="white"/>
<stop offset="1" stop-color="white" stop-opacity="0"/>
</linearGradient>
<linearGradient id="paint69_linear_6862_281" x1="9.49515" y1="0" x2="9.49515" y2="985.96" gradientUnits="userSpaceOnUse">
<stop stop-color="white" stop-opacity="0"/>
<stop offset="0.5" stop-color="white"/>
<stop offset="1" stop-color="white" stop-opacity="0"/>
</linearGradient>
<linearGradient id="paint70_linear_6862_281" x1="9.49515" y1="0" x2="9.49515" y2="985.96" gradientUnits="userSpaceOnUse">
<stop stop-color="white" stop-opacity="0"/>
<stop offset="0.5" stop-color="white"/>
<stop offset="1" stop-color="white" stop-opacity="0"/>
</linearGradient>
<linearGradient id="paint71_linear_6862_281" x1="9.49515" y1="0" x2="9.49515" y2="985.96" gradientUnits="userSpaceOnUse">
<stop stop-color="white" stop-opacity="0"/>
<stop offset="0.5" stop-color="white"/>
<stop offset="1" stop-color="white" stop-opacity="0"/>
</linearGradient>
<linearGradient id="paint72_linear_6862_281" x1="9.49515" y1="0" x2="9.49515" y2="985.96" gradientUnits="userSpaceOnUse">
<stop stop-color="white" stop-opacity="0"/>
<stop offset="0.5" stop-color="white"/>
<stop offset="1" stop-color="white" stop-opacity="0"/>
</linearGradient>
<linearGradient id="paint73_linear_6862_281" x1="9.49515" y1="0" x2="9.49515" y2="985.96" gradientUnits="userSpaceOnUse">
<stop stop-color="white" stop-opacity="0"/>
<stop offset="0.5" stop-color="white"/>
<stop offset="1" stop-color="white" stop-opacity="0"/>
</linearGradient>
<linearGradient id="paint74_linear_6862_281" x1="9.49515" y1="0" x2="9.49515" y2="985.96" gradientUnits="userSpaceOnUse">
<stop stop-color="white" stop-opacity="0"/>
<stop offset="0.5" stop-color="white"/>
<stop offset="1" stop-color="white" stop-opacity="0"/>
</linearGradient>
<linearGradient id="paint75_linear_6862_281" x1="9.49515" y1="0" x2="9.49515" y2="985.96" gradientUnits="userSpaceOnUse">
<stop stop-color="white" stop-opacity="0"/>
<stop offset="0.5" stop-color="white"/>
<stop offset="1" stop-color="white" stop-opacity="0"/>
</linearGradient>
<linearGradient id="paint76_linear_6862_281" x1="9.49515" y1="0" x2="9.49515" y2="985.96" gradientUnits="userSpaceOnUse">
<stop stop-color="white" stop-opacity="0"/>
<stop offset="0.5" stop-color="white"/>
<stop offset="1" stop-color="white" stop-opacity="0"/>
</linearGradient>
<linearGradient id="paint77_linear_6862_281" x1="9.49515" y1="0" x2="9.49515" y2="985.96" gradientUnits="userSpaceOnUse">
<stop stop-color="white" stop-opacity="0"/>
<stop offset="0.5" stop-color="white"/>
<stop offset="1" stop-color="white" stop-opacity="0"/>
</linearGradient>
<linearGradient id="paint78_linear_6862_281" x1="9.49515" y1="0" x2="9.49515" y2="985.96" gradientUnits="userSpaceOnUse">
<stop stop-color="white" stop-opacity="0"/>
<stop offset="0.5" stop-color="white"/>
<stop offset="1" stop-color="white" stop-opacity="0"/>
</linearGradient>
<linearGradient id="paint79_linear_6862_281" x1="9.49515" y1="0" x2="9.49515" y2="985.96" gradientUnits="userSpaceOnUse">
<stop stop-color="white" stop-opacity="0"/>
<stop offset="0.5" stop-color="white"/>
<stop offset="1" stop-color="white" stop-opacity="0"/>
</linearGradient>
<linearGradient id="paint80_linear_6862_281" x1="9.49515" y1="0" x2="9.49515" y2="985.96" gradientUnits="userSpaceOnUse">
<stop stop-color="white" stop-opacity="0"/>
<stop offset="0.5" stop-color="white"/>
<stop offset="1" stop-color="white" stop-opacity="0"/>
</linearGradient>
</defs>
</svg>
