<svg width="24" height="10" viewBox="0 0 24 10" fill="none" xmlns="http://www.w3.org/2000/svg">
<path fill-rule="evenodd" clip-rule="evenodd" d="M15.2964 0.0570643C15.0035 0.137221 14.5232 0.371518 13.9338 0.721869L13.4066 1.03519L13.9865 1.52515C14.3055 1.79464 14.5815 2.05597 14.6 2.10589C14.6775 2.31574 14.3999 2.5471 14.148 2.48257C14.0881 2.46722 13.7604 2.22546 13.4199 1.94535L12.8007 1.43605L12.3769 1.70355C12.1438 1.8507 11.9531 1.98128 11.9531 1.99374C11.9531 2.00621 12.1948 2.21722 12.4902 2.46269C12.7856 2.70816 13.0519 2.95839 13.0819 3.01871C13.1922 3.24066 12.9223 3.49035 12.648 3.42007C12.5881 3.40472 12.2605 3.16304 11.92 2.88296L11.301 2.37378L11.0417 2.55839C10.7053 2.79785 10.4963 3.01402 10.3205 3.30417C10.1256 3.62581 10.0647 3.85663 10.0852 4.19515C10.1071 4.55788 10.2469 4.75574 10.5743 4.88785C10.7576 4.96175 10.9128 4.98241 11.4798 5.0082C12.2362 5.04265 12.675 5.10742 13.1396 5.25312C13.9755 5.51531 14.5845 6.0489 14.8586 6.75925L14.9624 7.02816L15.2039 6.97031C15.8486 6.81593 17.1781 6.47687 17.5518 6.37152L17.9707 6.25339H20.8835H23.7963L23.853 5.83347C24.0533 4.3514 24.0477 3.3116 23.8331 2.08913C23.682 1.22851 23.3014 0.182377 23.0957 0.0622988C22.8942 -0.0553183 22.7503 -0.0141855 22.4301 0.25265C21.7146 0.8489 20.8014 1.18308 19.7372 1.23808C18.9212 1.28023 18.3771 1.12542 17.3256 0.551791C16.551 0.129213 16.3002 0.0385099 15.8529 0.0191349C15.6247 0.00925212 15.4203 0.0231972 15.2964 0.0570643ZM9.25781 3.56452C8.48292 3.97163 7.2833 4.40128 6.47409 4.56152C6.01631 4.65214 5.85113 4.66238 4.40625 4.68956C3.38831 4.70867 2.76998 4.73609 2.64844 4.76742C1.96973 4.94238 1.35103 5.37878 1.03448 5.90585C0.763031 6.35777 0.768094 6.37605 1.20703 6.52863C2.5732 7.00355 4.74056 7.46613 6.49219 7.65663C9.08138 7.9382 10.9422 7.84288 13.7415 7.28535L14.2408 7.18593L14.1937 7.04191C14.0441 6.58472 13.6444 6.1539 13.1774 5.94648C12.7567 5.75964 12.2617 5.66828 11.4609 5.62976C10.7184 5.59402 10.4424 5.54304 10.1085 5.37992C9.50803 5.08667 9.21131 4.43093 9.37167 3.75163C9.40284 3.61953 9.42164 3.50675 9.41339 3.50101C9.40519 3.49531 9.33516 3.52386 9.25781 3.56452ZM17.4844 7.03605C14.8907 7.76238 12.096 8.28421 10.1278 8.40964C8.92763 8.48617 6.90816 8.3691 5.25 8.12695C4.02548 7.94816 2.03845 7.48183 1.03444 7.13769L0.732984 7.03437L0.617625 7.12238C0.267375 7.38968 0 7.93503 0 8.38202C0 8.62929 0.107391 8.70663 0.729141 8.90726C3.43955 9.78183 8.30269 10.2296 11.3783 9.88796C13.0569 9.70148 15.3286 9.23886 17.1545 8.71167C17.3726 8.64867 17.5678 8.59714 17.5881 8.59714C17.6084 8.59714 17.625 8.87038 17.625 9.20437C17.625 9.79702 17.6278 9.81394 17.7401 9.90749L17.8551 10.0034H20.8125H23.7699L23.8781 9.91323C23.9827 9.82605 23.987 9.79597 24.0072 9.00503C24.0188 8.55511 24.0165 7.93495 24.0023 7.62695C23.9768 7.0732 23.9751 7.06581 23.845 6.97265L23.7135 6.87839L20.8685 6.88175L18.0234 6.88511L17.4844 7.03605ZM0.0145313 8.34324C0.0147656 8.47214 0.0235313 8.52015 0.0339844 8.44995C0.0443906 8.37976 0.0442031 8.27429 0.0335156 8.21558C0.0227813 8.15687 0.01425 8.21433 0.0145313 8.34324Z" fill="white"/>
</svg>
