<svg width="22" height="22" viewBox="0 0 22 22" fill="none" xmlns="http://www.w3.org/2000/svg">
<path fill-rule="evenodd" clip-rule="evenodd" d="M4.05665 1.2776C1.7677 2.04387 0.21098 2.5886 0.148917 2.64499C0.0921986 2.69655 0.0266205 2.7888 0.00322991 2.85002C-0.0444888 2.9748 0.451121 7.59237 0.527574 7.73519C0.551761 7.78043 0.627277 7.86124 0.695386 7.91477C0.815105 8.00899 0.870699 8.01218 2.38256 8.01218H3.94593L3.95826 14.855L3.97059 21.6979L4.12382 21.8511L4.27706 22.0044H10.9784H17.6797L17.833 21.8511L17.9862 21.6979L17.9987 14.855L18.0112 8.01218H19.5744C21.0861 8.01218 21.1417 8.00899 21.2614 7.91477C21.3295 7.86124 21.405 7.78043 21.4292 7.73519C21.5061 7.59152 22.0013 2.97466 21.9532 2.85002C21.9296 2.7888 21.8605 2.69393 21.7998 2.63918C21.6293 2.48543 14.0393 -0.0289007 13.8723 0.0130055C13.8019 0.0306774 13.5941 0.192912 13.4107 0.373521C13.0185 0.759443 12.5994 1.01941 12.08 1.19876C11.7394 1.31632 11.6426 1.32841 11.0253 1.33033C10.3117 1.33258 10.1136 1.29879 9.59803 1.08663C9.1994 0.922615 8.86396 0.695881 8.55332 0.380459C8.2522 0.0746931 8.12957 -0.00518196 7.96978 0.000255545C7.91006 0.00227117 6.14915 0.577099 4.05665 1.2776Z" fill="white"/>
</svg>
