<svg width="19" height="20" viewBox="0 0 19 20" fill="none" xmlns="http://www.w3.org/2000/svg">
<path fill-rule="evenodd" clip-rule="evenodd" d="M7.27801 0.0432425C6.89428 0.100626 6.49104 0.230783 6.09051 0.426488C5.13649 0.892702 4.36586 1.61388 3.63716 2.72244L3.33402 3.18362L5.91378 3.206C8.71815 3.23034 8.61551 3.22245 9.27244 3.46401L9.55616 3.56831L9.63428 3.45714C10.1569 2.71338 10.6498 2.18814 11.1336 1.85955C11.6313 1.52153 12.3038 1.28907 12.7838 1.28907C13.027 1.28907 13.1889 1.21712 13.3383 1.04262C13.5991 0.737974 13.5146 0.281799 13.1619 0.0905476L12.995 0L10.2492 0.00476566C8.73895 0.00738287 7.40191 0.0246877 7.27801 0.0432425ZM14.747 0.543168C14.7876 0.702193 14.6807 1.19384 14.5424 1.48439C14.2315 2.13748 13.55 2.57412 12.8356 2.57803C12.3566 2.58064 11.742 2.89924 11.2935 3.37737L11.1607 3.51897L11.2674 3.70288C11.4758 4.06218 11.9355 5.06453 12.0682 5.44926C12.4929 6.68005 12.6908 7.73873 12.7947 9.33601C12.862 10.3721 12.955 10.7525 13.2791 11.3196C13.4864 11.6821 14.0378 12.2197 14.3972 12.4095C15.2084 12.8379 16.0489 12.9083 16.8938 12.6185C17.9019 12.2728 18.6083 11.4763 18.9022 10.3541C18.9901 10.0183 19 9.90949 19 9.27741C19 8.4801 18.9367 7.90557 18.7376 6.89458C18.1722 4.0239 16.8297 1.72915 15.0873 0.655083C14.921 0.552621 14.7722 0.468753 14.7565 0.468753C14.7409 0.468753 14.7366 0.50223 14.747 0.543168ZM2.13292 4.55496C1.57554 4.67562 0.940008 5.07504 0.598017 5.51957C0.348237 5.84426 0.235116 6.05309 0.107217 6.42583L0 6.73833V9.94148V13.1446L0.0996758 13.4441C0.345228 14.1817 0.826468 14.765 1.45629 15.0884C2.07045 15.4037 1.95448 15.3951 5.40847 15.3824L8.4555 15.3712L8.7602 15.2612C9.44354 15.0145 10.0097 14.5044 10.3232 13.853C10.612 13.2529 10.6061 13.3342 10.6068 9.93796C10.6074 7.04193 10.6045 6.91478 10.5304 6.61763C10.2829 5.62489 9.57738 4.87883 8.60785 4.58449C8.3986 4.52093 8.12699 4.51433 5.38943 4.50617C2.87327 4.49863 2.35729 4.50636 2.13292 4.55496ZM16.2874 9.7082C16.5209 9.7898 16.7017 9.95218 16.8361 10.201C16.9332 10.3809 16.949 10.4514 16.949 10.7032C16.9489 11.0455 16.8469 11.2968 16.6283 11.4937C16.403 11.6965 16.1966 11.7681 15.8873 11.7505C15.5742 11.7327 15.3974 11.6566 15.1957 11.4526C14.9988 11.2534 14.8988 11.0092 14.8969 10.7227C14.8948 10.4126 14.9643 10.2197 15.1545 10.0072C15.4485 9.67867 15.8783 9.56523 16.2874 9.7082ZM12.572 12.6625C12.4944 13.0316 12.3052 13.814 12.2428 14.0235C12.0343 14.7241 11.6356 15.6522 11.266 16.2973L11.1607 16.4812L11.2935 16.6228C11.742 17.1009 12.3566 17.4195 12.8356 17.4221C13.55 17.426 14.2315 17.8627 14.5424 18.5158C14.6807 18.8063 14.7876 19.298 14.747 19.457C14.7366 19.4979 14.7409 19.5314 14.7565 19.5314C14.7722 19.5314 14.921 19.4475 15.0873 19.3451C16.4408 18.5108 17.5082 17.0191 18.2486 14.9272C18.3941 14.5162 18.7583 13.1735 18.7583 13.048C18.7583 13.0278 18.6254 13.1092 18.4631 13.2287C17.6961 13.7937 16.8639 14.0626 15.8826 14.0626C14.6992 14.0626 13.7087 13.6647 12.8848 12.8583C12.6123 12.5916 12.5899 12.5776 12.572 12.6625ZM9.21725 16.4535C9.11251 16.4965 8.87256 16.5647 8.68403 16.6052C8.36839 16.6729 8.14131 16.6788 5.81792 16.6793C4.42935 16.6796 3.2946 16.695 3.2946 16.7135C3.2946 16.7859 3.91219 17.6958 4.20238 18.0508C4.87052 18.8683 5.74326 19.5008 6.59761 19.7869C7.2069 19.9909 7.36154 19.9998 10.2812 20C12.9361 20.0001 12.9858 19.9987 13.1459 19.9192C13.5246 19.7312 13.6053 19.2164 13.3029 18.9172C13.1471 18.763 13.0149 18.7111 12.7785 18.7111C12.3881 18.7111 11.8029 18.5373 11.3836 18.2968C10.835 17.9822 10.1623 17.3261 9.75014 16.7038C9.62064 16.5083 9.50223 16.369 9.46749 16.3713C9.43458 16.3735 9.322 16.4105 9.21725 16.4535Z" fill="white"/>
</svg>
